<?xml version="1.0" encoding="UTF-8" standalone="no"?>
<svg
   width="500"
   height="500"
   viewBox="130 130 500 500"
   xmlns="http://www.w3.org/2000/svg">
  <defs />
  <!-- Background Circle (White) to make it POP -->
  <circle cx="380" cy="380" r="240" fill="#ffffff" />

  <g transform="matrix(1.9029724,0,0,1.9057587,-264.03742,-233.93188)">
     <!-- The Icon Paths from pp.svg -->
     <path
        style="display:inline;fill:#ffffff;fill-opacity:1;stroke:#00427a;stroke-width:10.5;stroke-dasharray:none;stroke-opacity:1"
        d="m 264,595 c 0,0 -51.73135,-2.04069 -85,-35 -33.26865,-32.95931 -35,-85 -35,-85 V 248 c 0,0 2.20265,-51.97309 35,-85 32.79735,-33.02691 85,-35 85,-35 h 228 c 0,0 51.96922,1.62463 85,35 33.03078,33.37537 35,85 35,85 v 206 l 143,141 z"
        id="path2" />
     <path
        style="fill:#00a796;fill-opacity:1"
        d="m 404.17501,543 v -85 h 23.65489 c 27.74822,0 31.45335,-1.49031 37.57654,-9.51822 6.00986,-7.87937 8.70576,-12.87624 8.76856,-36.25952 0.032,-11.97777 0,-24.22226 0,-24.22226 l 147.6667,155 z"
        id="path3" />
  </g>
</svg>
